PathFileType	4	(X/Y/Z)	3_coords_data.trc
DataRate	CameraRate	NumFrames	NumMarkers	Units	OrigDataRate	OrigDataStartFrame	OrigNumFrames
30.0	30.0	4	21	m	30.0	10	78
Frame#	Time	THUMB_TIP	THUMB_IP	THUMB_MCP	THUMB_CMC	INDEX_TIP	INDEX_DIP	INDEX_PIP	INDEX_MCP	MIDDLE_TIP	MIDDLE_DIP	MIDDLE_PIP	MIDDLE_MCP	RING_TIP	RING_DIP	RING_PIP	RING_MCP	PINKY_TIP	PINKY_DIP	PINKY_PIP	PINKY_MCP	WRIST
X1	Y1	Z1	X2	Y2	Z2	X3	Y3	Z3	X4	Y4	Z4	X5	Y5	Z5	X6	Y6	Z6	X7	Y7	Z7	X8	Y8	Z8	X9	Y9	Z9	X10	Y10	Z10	X11	Y11	Z11	X12	Y12	Z12	X13	Y13	Z13	X14	Y14	Z14	X15	Y15	Z15	X16	Y16	Z16	X17	Y17	Z17	X18	Y18	Z18	X19	Y19	Z19	X20	Y20	Z20	X21	Y21	Z21
8	0.2999999999999987	0.4682977191509715	-0.023346724825109688	-0.17220279048197323	0.478282306103319	-0.022649310657356758	-0.1515189408192622	0.4751166148929121	-0.026948818834050092	-0.12085442339930441	0.4769307431992892	-0.027005284355018366	-0.07628317986568789	0.500234430366296	-0.017385651676965153	-0.09988099584325161	0.5181356643175433	-0.019849848080011112	-0.0986670934131022	0.5348909754516896	-0.00458551920640915	-0.10954227827757579	0.497771202759007	0.013813976120634619	-0.11940215357869755	0.5000694819583655	-0.016934629817350166	-0.0823870021531522	0.5179978969524179	-0.016690935888738268	-0.07983503250791857	0.5373306550283984	0.002681014686900296	-0.08985409164890745	0.5023927028889942	0.02808251763239822	-0.10126685071122743	0.5002661267651257	-0.00360955456237233	-0.07082727522065224	0.517811350470393	-0.0028354739204394797	-0.0667571493882102	0.5345335450447803	0.014867186233883944	-0.07196905988982649	0.5034890541290931	0.03878221228481704	-0.08192053951694767	0.4994168587249799	-0.002229489362250092	-0.05668933517975272	0.5156951768976425	-0.0014863019286219803	-0.05144872167482262	0.5267630207968829	0.016339435431624083	-0.05219567414023152	0.5004314863734246	0.039744978823783694	-0.059923175963199515	0.462283081001861	-0.023011742144276925	-0.051989820119430985
9	0.33333333333333187	0.4682735706736615	-0.023362311716181527	-0.17216738269103155	0.47825640216572207	-0.022682728243764716	-0.15148209222400782	0.47503996502704116	-0.02692440862606804	-0.12081480216330476	0.4769834110808554	-0.02701905731702825	-0.07624907475915244	0.5002456471237975	-0.01729940247750017	-0.09991601584788556	0.5181400432094558	-0.01980587500842268	-0.09868793434354295	0.5348562813578676	-0.004474156691033682	-0.10952839690755845	0.4977156968399771	0.013879351468045864	-0.11939560593159493	0.5000354668293698	-0.016847916628181525	-0.08233089638039381	0.5179664708505051	-0.016658187998794705	-0.07979257058546074	0.5372665172434826	0.0027519986178049516	-0.08980068802770191	0.5023352088529833	0.02814826353445221	-0.1012453961240799	0.5002206376186706	-0.0035252613250266185	-0.07078822364559278	0.5177662098698007	-0.002753412540377864	-0.06671917660310067	0.5344765565976007	0.014958790448489245	-0.07193666225405093	0.503411777200012	0.038835595747235496	-0.08191656624682142	0.49932690458024287	-0.0019167588326753915	-0.05661976645130684	0.5156170445785987	-0.0014307434422614618	-0.051385730926566175	0.5266658495043317	0.016403738694931835	-0.0522025391116564	0.5003296012095669	0.039807144005077566	-0.059920446641909764	0.4622830810018609	-0.023011742144276925	-0.051989820119430985
10	0.3666666666666651	0.46824446389305163	-0.023415733629970514	-0.1721240456994621	0.47823699547656373	-0.022776638568833274	-0.1514421485414318	0.4749834884866647	-0.02694322910949054	-0.1207684755378089	0.4770351010183346	-0.02707890152630954	-0.07620770266507682	0.5001546450528722	-0.0170625702386501	-0.09993469534531108	0.5180364125590434	-0.019662693919339835	-0.09871742475076106	0.5348117534839265	-0.004373348145476852	-0.10952638749753763	0.4976515709545831	0.013938748196538508	-0.11939675000084227	0.49999355463632666	-0.016784200780814218	-0.08224407516698617	0.5179275667134003	-0.016603482088302646	-0.0797264271428283	0.5372095028484125	0.002831918541452483	-0.089720509954484	0.5022835464818907	0.028208744980488754	-0.10122451676806143	0.5001895154568864	-0.0034288092045889895	-0.07068266565258596	0.5177452156265282	-0.0027083862535072223	-0.06664801792010755	0.5343825423721571	0.015075064061075394	-0.07185649492091628	0.5033089928070412	0.03892681112698082	-0.08186896281491574	0.49921350286040966	-0.0017015689748618446	-0.056552938783737794	0.5154912462287545	-0.0013188156675766338	-0.05127197573330222	0.5265482873359603	0.016507769123647376	-0.05214761015180336	0.5001956454943193	0.03989636730690438	-0.05985443790311207	0.4622830810018609	-0.023011742144276925	-0.051989820119430985
11	0.39999999999999825	0.46837109113692454	-0.023499689807898294	-0.17215039917848202	0.4783644615264663	-0.02286996267053587	-0.15146861995159	0.47509608138471937	-0.027009706680765966	-0.12079289321563802	0.4770138967347817	-0.027046813567555783	-0.07622597042123791	0.5002099002258555	-0.01714088953552073	-0.09989808697330516	0.5180984496645109	-0.019679604937871242	-0.09865120161905272	0.534843457743823	-0.004350010511415148	-0.10945018639282367	0.4976885596807691	0.013943526652966387	-0.11937470864527833	0.499973232139439	-0.016709405164672564	-0.08220557217858693	0.517901420219564	-0.01660509278978295	-0.07964252885236178	0.5371746389285843	0.0028324209669555733	-0.08964930903136392	0.5022791210301216	0.028224641796777084	-0.10121156975008383	0.5002042403052057	-0.0033386404613346965	-0.07065898725516229	0.5177653224294347	-0.0026757686297329553	-0.0666379182976643	0.534350366312725	0.015164627367552197	-0.07181832069992866	0.5032506134880214	0.038970860863210555	-0.08185771585066037	0.4992576074016548	-0.0016559702990609493	-0.056455376923988054	0.5155460169009266	-0.0013377148371989112	-0.05120309842365833	0.5264787838909425	0.016564526845719296	-0.05209549276945136	0.5001263226810208	0.03993930239490251	-0.059844757715552754	0.462283081001861	-0.023011742144276925	-0.051989820119430985
